CalSansText-Medium.ufo
<glyph name="percent" format="2">
  <advance width="741.0"/>
  <unicode hex="0025"/>
  <outline>
    <contour>
      <point x="77.5" y="0.0" type="line"/>
      <point x="161.25" y="0.0" type="line"/>
      <point x="658.25" y="700.0" type="line"/>
      <point x="575.5" y="700.0" type="line"/>
    </contour>
    <contour>
      <point x="540.0" y="-6.95" type="curve" smooth="yes"/>
      <point x="629.425" y="-6.95"/>
      <point x="696.0" y="62.625"/>
      <point x="696.0" y="145.05" type="curve" smooth="yes"/>
      <point x="696.0" y="227.95"/>
      <point x="629.95" y="300.05"/>
      <point x="540.0" y="300.05" type="curve" smooth="yes"/>
      <point x="450.575" y="300.05"/>
      <point x="385.0" y="228.475"/>
      <point x="385.0" y="145.05" type="curve" smooth="yes"/>
      <point x="385.0" y="62.625"/>
      <point x="450.575" y="-6.95"/>
    </contour>
    <contour>
      <point x="540.0" y="56.77499999999999" type="curve" smooth="yes"/>
      <point x="489.54999999999995" y="56.77499999999999"/>
      <point x="455.25" y="96.125"/>
      <point x="455.25" y="144.52499999999998" type="curve" smooth="yes"/>
      <point x="455.25" y="195.975"/>
      <point x="489.54999999999995" y="235.325"/>
      <point x="540.0" y="235.325" type="curve" smooth="yes"/>
      <point x="590.9749999999999" y="235.325"/>
      <point x="625.275" y="195.975"/>
      <point x="625.275" y="144.52499999999998" type="curve" smooth="yes"/>
      <point x="626.75" y="94.6"/>
      <point x="592.5" y="56.3"/>
    </contour>
    <contour>
      <point x="200.0" y="401.0" type="curve" smooth="yes"/>
      <point x="289.425" y="401.0"/>
      <point x="356.0" y="470.575"/>
      <point x="356.0" y="553.0" type="curve" smooth="yes"/>
      <point x="356.0" y="635.425"/>
      <point x="290.42499999999995" y="708.0"/>
      <point x="200.0" y="708.0" type="curve" smooth="yes"/>
      <point x="110.575" y="708.0"/>
      <point x="45.0" y="636.425"/>
      <point x="45.0" y="553.0" type="curve" smooth="yes"/>
      <point x="45.0" y="470.575"/>
      <point x="110.575" y="401.0"/>
    </contour>
    <contour>
      <point x="200.0" y="464.725" type="curve" smooth="yes"/>
      <point x="149.55" y="464.725"/>
      <point x="115.25" y="504.07500000000005"/>
      <point x="115.25" y="552.475" type="curve" smooth="yes"/>
      <point x="115.25" y="603.925"/>
      <point x="149.55" y="643.275"/>
      <point x="200.0" y="643.275" type="curve" smooth="yes"/>
      <point x="251.45" y="643.275"/>
      <point x="285.275" y="603.925"/>
      <point x="285.275" y="552.475" type="curve" smooth="yes"/>
      <point x="286.75" y="502.55"/>
      <point x="252.97500000000002" y="464.725"/>
    </contour>
  </outline>
</glyph>
<glyph name="equal" format="2">
  <advance width="596.0"/>
  <unicode hex="003D"/>
  <outline>
    <contour>
      <point x="73.92500000000001" y="374.35" type="line"/>
      <point x="515.425" y="374.35" type="line"/>
      <point x="515.425" y="464.4" type="line"/>
      <point x="73.92500000000001" y="464.4" type="line"/>
    </contour>
    <contour>
      <point x="73.92500000000001" y="168.175" type="line"/>
      <point x="515.425" y="168.175" type="line"/>
      <point x="515.425" y="258.225" type="line"/>
      <point x="73.92500000000001" y="258.225" type="line"/>
    </contour>
  </outline>
</glyph>
<glyph name="K" format="2">
  <advance width="622.8"/>
  <unicode hex="004B"/>
  <anchor x="307.775" y="0.0" name="bottom"/>
  <anchor x="466.725" y="0.0" name="ogonek"/>
  <anchor x="297.775" y="701.0" name="top"/>
  <outline>
    <contour>
      <point x="81.05000000000001" y="0.0" type="line"/>
      <point x="190.60000000000002" y="0.0" type="line"/>
      <point x="190.60000000000002" y="327.375" type="line"/>
      <point x="193.075" y="327.375" type="line"/>
      <point x="466.725" y="0.0" type="line"/>
      <point x="614.75" y="0.0" type="line"/>
      <point x="296.975" y="369.9" type="line"/>
      <point x="593.7" y="700.0" type="line"/>
      <point x="445.35" y="700.0" type="line"/>
      <point x="193.075" y="395.775" type="line"/>
      <point x="190.60000000000002" y="395.775" type="line"/>
      <point x="190.60000000000002" y="700.0" type="line"/>
      <point x="81.05000000000001" y="700.0" type="line"/>
    </contour>
  </outline>
</glyph>
<glyph name="underscore" format="2">
  <advance width="553.5"/>
  <unicode hex="005F"/>
  <outline>
    <contour>
      <point x="59.0" y="-86.125" type="line"/>
      <point x="494.5" y="-86.125" type="line"/>
      <point x="494.5" y="0.0" type="line"/>
      <point x="59.0" y="0.0" type="line"/>
    </contour>
  </outline>
</glyph>
<glyph name="b" format="2">
  <advance width="630.9"/>
  <unicode hex="0062"/>
  <anchor x="340.25" y="0.0" name="bottom"/>
  <anchor x="425.775" y="0.0" name="ogonek"/>
  <anchor x="236.22500000000002" y="589.75" name="top"/>
  <outline>
    <contour>
      <point x="345.625" y="-13.0" type="curve" smooth="yes"/>
      <point x="491.475" y="-13.0"/>
      <point x="593.0" y="101.5"/>
      <point x="593.0" y="247.79999999999998" type="curve" smooth="yes"/>
      <point x="593.0" y="394.575"/>
      <point x="491.475" y="509.6"/>
      <point x="345.625" y="509.6" type="curve" smooth="yes"/>
      <point x="270.8" y="509.6"/>
      <point x="206.9" y="469.825"/>
      <point x="183.175" y="413.25" type="curve"/>
      <point x="177.175" y="413.25" type="line"/>
      <point x="177.175" y="700.0" type="line"/>
      <point x="71.05000000000001" y="700.0" type="line"/>
      <point x="71.05000000000001" y="0.0" type="line"/>
      <point x="173.175" y="0.0" type="line"/>
      <point x="173.175" y="84.5" type="line"/>
      <point x="179.175" y="84.5" type="line"/>
      <point x="202.89999999999998" y="27.825000000000003"/>
      <point x="265.75" y="-13.0"/>
    </contour>
    <contour>
      <point x="330.975" y="84.275" type="curve" smooth="yes"/>
      <point x="238.85000000000002" y="84.275"/>
      <point x="176.65" y="155.77499999999998"/>
      <point x="176.65" y="247.79999999999998" type="curve" smooth="yes"/>
      <point x="176.65" y="342.4"/>
      <point x="238.85000000000002" y="412.32500000000005"/>
      <point x="330.975" y="412.32500000000005" type="curve" smooth="yes"/>
      <point x="426.25" y="412.32500000000005"/>
      <point x="486.875" y="343.45000000000005"/>
      <point x="486.875" y="248.8" type="curve" smooth="yes"/>
      <point x="486.875" y="154.725"/>
      <point x="426.25" y="84.275"/>
    </contour>
  </outline>
</glyph>
<glyph name="h" format="2">
  <advance width="580.85"/>
  <unicode hex="0068"/>
  <anchor x="124.35" y="586.95" name="bar"/>
  <anchor x="297.125" y="0.0" name="bottom"/>
  <anchor x="408.675" y="0.0" name="ogonek"/>
  <anchor x="124.35" y="700.0" name="top"/>
  <outline>
    <contour>
      <point x="71.05000000000001" y="0.0" type="line"/>
      <point x="177.175" y="0.0" type="line"/>
      <point x="177.175" y="293.625" type="line" smooth="yes"/>
      <point x="177.175" y="368.5"/>
      <point x="224.625" y="415.225"/>
      <point x="299.325" y="415.225" type="curve" smooth="yes"/>
      <point x="367.575" y="415.225"/>
      <point x="408.675" y="368.5"/>
      <point x="408.675" y="293.625" type="curve" smooth="yes"/>
      <point x="408.675" y="0.0" type="line"/>
      <point x="514.8" y="0.0" type="line"/>
      <point x="514.8" y="318.75" type="line" smooth="yes"/>
      <point x="514.8" y="432.9"/>
      <point x="435.1" y="510.125"/>
      <point x="331.275" y="510.125" type="curve" smooth="yes"/>
      <point x="256.125" y="510.125"/>
      <point x="208.27499999999998" y="470.125"/>
      <point x="183.175" y="427.875" type="curve"/>
      <point x="177.175" y="427.875" type="line"/>
      <point x="177.175" y="700.0" type="line"/>
      <point x="71.05000000000001" y="700.0" type="line"/>
    </contour>
  </outline>
</glyph>
<glyph name="l" format="2">
  <advance width="248.22500000000002"/>
  <unicode hex="006C"/>
  <anchor x="124.35" y="0.0" name="bottom"/>
  <anchor x="124.35" y="393.0" name="center"/>
  <anchor x="177.175" y="0.0" name="ogonek"/>
  <anchor x="124.82499999999999" y="700.0" name="top"/>
  <anchor x="227.65" y="700.0" name="topright"/>
  <outline>
    <contour>
      <point x="71.05000000000001" y="0.0" type="line"/>
      <point x="177.175" y="0.0" type="line"/>
      <point x="177.64999999999998" y="700.0" type="line"/>
      <point x="71.525" y="700.0" type="line"/>
      <point x="71.05000000000001" y="126.75" type="line"/>
    </contour>
  </outline>
</glyph>
<glyph name="o" format="2">
  <advance width="590.375"/>
  <unicode hex="006F"/>
  <anchor x="294.92499999999995" y="0.0" name="bottom"/>
  <anchor x="294.92499999999995" y="251.6" name="center"/>
  <anchor x="330.375" y="-2.375" name="ogonek"/>
  <anchor x="294.92499999999995" y="497.125" name="top"/>
  <anchor x="460.975" y="497.125" name="topright"/>
  <outline>
    <contour>
      <point x="294.92499999999995" y="-13.0" type="curve" smooth="yes"/>
      <point x="443.725" y="-13.0"/>
      <point x="552.4749999999999" y="97.85"/>
      <point x="552.4749999999999" y="248.85" type="curve" smooth="yes"/>
      <point x="552.4749999999999" y="399.79999999999995"/>
      <point x="443.725" y="510.125"/>
      <point x="294.92499999999995" y="510.125" type="curve" smooth="yes"/>
      <point x="146.64999999999998" y="510.125"/>
      <point x="37.900000000000006" y="399.275"/>
      <point x="37.900000000000006" y="247.79999999999998" type="curve" smooth="yes"/>
      <point x="37.900000000000006" y="97.32499999999999"/>
      <point x="146.64999999999998" y="-13.0"/>
    </contour>
    <contour>
      <point x="294.92499999999995" y="84.275" type="curve" smooth="yes"/>
      <point x="204.75" y="84.275"/>
      <point x="144.025" y="152.4"/>
      <point x="144.025" y="248.325" type="curve" smooth="yes"/>
      <point x="144.025" y="345.775"/>
      <point x="204.75" y="412.85"/>
      <point x="294.92499999999995" y="412.85" type="curve" smooth="yes"/>
      <point x="385.1" y="412.85"/>
      <point x="446.35" y="344.725"/>
      <point x="446.35" y="248.325" type="curve" smooth="yes"/>
      <point x="446.35" y="151.35000000000002"/>
      <point x="385.1" y="84.275"/>
    </contour>
  </outline>
</glyph>
<glyph name="yen" format="2">
  <advance width="608.925"/>
  <unicode hex="00A5"/>
  <anchor x="306.2" y="30.0" name="bottom"/>
  <anchor x="306.725" y="669.2574999999999" name="top"/>
  <anchor x="30.0" y="669.2574999999999" name="topleft"/>
  <outline>
    <contour>
      <point x="65.19999999999999" y="284.8" type="line"/>
      <point x="553.2" y="284.8" type="line"/>
      <point x="553.2" y="363.45000000000005" type="line"/>
      <point x="65.19999999999999" y="363.45000000000005" type="line"/>
    </contour>
    <contour>
      <point x="65.19999999999999" y="154.3" type="line"/>
      <point x="553.2" y="154.3" type="line"/>
      <point x="553.2" y="232.47500000000002" type="line"/>
      <point x="65.19999999999999" y="232.47500000000002" type="line"/>
    </contour>
    <component base="Y" yScale="0.913225" xOffset="10.0" yOffset="30.0"/>
  </outline>
</glyph>
<glyph name="degree" format="2">
  <advance width="427.2"/>
  <unicode hex="00B0"/>
  <outline>
    <contour>
      <point x="213.1" y="388.9" type="curve" smooth="yes"/>
      <point x="306.525" y="388.9"/>
      <point x="375.525" y="459.9"/>
      <point x="375.525" y="547.9000000000001" type="curve" smooth="yes"/>
      <point x="375.525" y="635.9000000000001"/>
      <point x="307.525" y="710.9000000000001"/>
      <point x="213.1" y="710.9000000000001" type="curve" smooth="yes"/>
      <point x="118.675" y="710.9000000000001"/>
      <point x="51.675" y="637.9000000000001"/>
      <point x="51.675" y="547.9000000000001" type="curve" smooth="yes"/>
      <point x="51.675" y="459.9"/>
      <point x="118.675" y="388.9"/>
    </contour>
    <contour>
      <point x="213.1" y="458.275" type="curve" smooth="yes"/>
      <point x="163.025" y="458.275"/>
      <point x="127.575" y="498.25"/>
      <point x="127.575" y="547.375" type="curve" smooth="yes"/>
      <point x="127.575" y="600.55"/>
      <point x="163.025" y="641.05"/>
      <point x="213.1" y="641.05" type="curve" smooth="yes"/>
      <point x="263.175" y="641.05"/>
      <point x="298.1" y="600.55"/>
      <point x="298.1" y="547.375" type="curve" smooth="yes"/>
      <point x="299.625" y="497.25"/>
      <point x="264.175" y="458.275"/>
    </contour>
  </outline>
</glyph>
<glyph name="germandbls" format="2">
  <advance width="626.25"/>
  <unicode hex="00DF"/>
  <outline>
    <contour>
      <point x="349.4" y="-13.0" type="curve" smooth="yes"/>
      <point x="502.55" y="-13.0"/>
      <point x="578.3" y="90.55000000000001"/>
      <point x="578.3" y="195.7" type="curve" smooth="yes"/>
      <point x="578.3" y="270.3"/>
      <point x="518.0" y="361.375"/>
      <point x="402.1" y="373.25" type="curve"/>
      <point x="402.1" y="377.25" type="line"/>
      <point x="471.6" y="399.15"/>
      <point x="517.3" y="457.525"/>
      <point x="517.3" y="529.0" type="curve" smooth="yes"/>
      <point x="517.3" y="621.625"/>
      <point x="427.3" y="713.0"/>
      <point x="301.17499999999995" y="713.0" type="curve" smooth="yes"/>
      <point x="167.05" y="713.0"/>
      <point x="71.05000000000001" y="615.2"/>
      <point x="71.05000000000001" y="494.0" type="curve" smooth="yes"/>
      <point x="71.05000000000001" y="0.0" type="line"/>
      <point x="177.175" y="0.0" type="line"/>
      <point x="177.175" y="494.0" type="line" smooth="yes"/>
      <point x="177.175" y="568.7"/>
      <point x="228.95" y="614.675"/>
      <point x="297.175" y="614.675" type="curve" smooth="yes"/>
      <point x="359.075" y="614.675"/>
      <point x="410.6" y="574.325"/>
      <point x="410.6" y="507.82500000000005" type="curve" smooth="yes"/>
      <point x="410.6" y="435.25"/>
      <point x="356.85" y="401.35"/>
      <point x="267.575" y="398.725" type="curve"/>
      <point x="267.575" y="312.775" type="line"/>
      <point x="397.3" y="330.725"/>
      <point x="472.65" y="268.4"/>
      <point x="472.65" y="193.97500000000002" type="curve" smooth="yes"/>
      <point x="472.65" y="122.15"/>
      <point x="418.17499999999995" y="83.32499999999999"/>
      <point x="349.075" y="83.32499999999999" type="curve" smooth="yes"/>
      <point x="317.45000000000005" y="83.32499999999999"/>
      <point x="293.5" y="88.69999999999999"/>
      <point x="266.625" y="98.32499999999999" type="curve"/>
      <point x="266.625" y="3.475" type="line"/>
      <point x="287.725" y="-8.525"/>
      <point x="323.15" y="-13.0"/>
    </contour>
  </outline>
</glyph>
<glyph name="ae" format="2">
  <advance width="997.575"/>
  <unicode hex="00E6"/>
  <anchor x="509.17499999999995" y="0.0" name="bottom"/>
  <anchor x="454.775" y="0.0" name="ogonek"/>
  <anchor x="509.17499999999995" y="497.125" name="top"/>
  <outline>
    <contour>
      <point x="722.7750000000001" y="-13.0" type="curve" smooth="yes"/>
      <point x="813.625" y="-13.0"/>
      <point x="889.4749999999999" y="22.325"/>
      <point x="934.05" y="77.625" type="curve"/>
      <point x="861.85" y="146.10000000000002" type="line"/>
      <point x="831.125" y="103.8"/>
      <point x="779.425" y="82.85"/>
      <point x="719.9749999999999" y="82.85" type="curve" smooth="yes"/>
      <point x="654.2750000000001" y="82.85"/>
      <point x="565.7" y="138.97500000000002"/>
      <point x="561.325" y="235.85" type="curve"/>
      <point x="560.85" y="252.125" type="line"/>
      <point x="558.425" y="371.025"/>
      <point x="654.2750000000001" y="419.5"/>
      <point x="712.175" y="419.5" type="curve" smooth="yes"/>
      <point x="805.825" y="419.5"/>
      <point x="856.6" y="354.375"/>
      <point x="853.075" y="254.5" type="curve"/>
      <point x="886.775" y="299.2" type="line"/>
      <point x="513.675" y="299.2" type="line"/>
      <point x="513.675" y="214.95" type="line"/>
      <point x="956.7249999999999" y="214.95" type="line"/>
      <point x="959.2" y="223.95"/>
      <point x="959.675" y="240.275"/>
      <point x="959.675" y="253.6" type="curve" smooth="yes"/>
      <point x="959.675" y="406.025"/>
      <point x="866.4" y="510.125"/>
      <point x="731.75" y="510.125" type="curve" smooth="yes"/>
      <point x="598.125" y="510.125"/>
      <point x="529.325" y="404.825"/>
      <point x="529.325" y="247.425" type="curve" smooth="yes"/>
      <point x="529.325" y="97.42500000000001"/>
      <point x="595.175" y="-13.0"/>
    </contour>
    <contour>
      <point x="470.025" y="413.25" type="line"/>
      <point x="470.025" y="84.5" type="line"/>
      <point x="576.175" y="84.5" type="line"/>
      <point x="537.7249999999999" y="256.225" type="line"/>
      <point x="576.175" y="413.25" type="line"/>
    </contour>
    <component base="a"/>
  </outline>
</glyph>
<glyph name="kgreenlandic" format="2">
  <advance width="550.175"/>
  <unicode hex="0138"/>
  <outline>
    <contour>
      <point x="71.05000000000001" y="0.0" type="line"/>
      <point x="178.22500000000002" y="0.0" type="line"/>
      <point x="178.22500000000002" y="245.45" type="line"/>
      <point x="182.175" y="245.45" type="line"/>
      <point x="390.325" y="0.0" type="line"/>
      <point x="524.125" y="0.0" type="line"/>
      <point x="292.55" y="273.475" type="line"/>
      <point x="516.3" y="497.125" type="line"/>
      <point x="373.70000000000005" y="497.125" type="line"/>
      <point x="182.175" y="289.7" type="line"/>
      <point x="178.22500000000002" y="289.7" type="line"/>
      <point x="178.22500000000002" y="497.125" type="line"/>
      <point x="71.05000000000001" y="497.125" type="line"/>
    </contour>
  </outline>
</glyph>
<glyph name="oe" format="2">
  <advance width="977.6500000000001"/>
  <unicode hex="0153"/>
  <anchor x="497.7" y="0.0" name="bottom"/>
  <anchor x="497.7" y="497.125" name="top"/>
  <outline>
    <contour>
      <point x="294.92499999999995" y="-13.0" type="curve" smooth="yes"/>
      <point x="443.725" y="-13.0"/>
      <point x="544.25" y="97.85"/>
      <point x="544.25" y="248.85" type="curve" smooth="yes"/>
      <point x="544.25" y="399.79999999999995"/>
      <point x="443.725" y="510.125"/>
      <point x="294.92499999999995" y="510.125" type="curve" smooth="yes"/>
      <point x="146.64999999999998" y="510.125"/>
      <point x="37.900000000000006" y="399.275"/>
      <point x="37.900000000000006" y="247.79999999999998" type="curve" smooth="yes"/>
      <point x="37.900000000000006" y="97.32499999999999"/>
      <point x="146.64999999999998" y="-13.0"/>
    </contour>
    <contour>
      <point x="294.92499999999995" y="84.275" type="curve" smooth="yes"/>
      <point x="204.75" y="84.275"/>
      <point x="144.025" y="152.4"/>
      <point x="144.025" y="248.325" type="curve" smooth="yes"/>
      <point x="144.025" y="345.775"/>
      <point x="204.75" y="412.85"/>
      <point x="294.92499999999995" y="412.85" type="curve" smooth="yes"/>
      <point x="385.1" y="412.85"/>
      <point x="446.35" y="344.725"/>
      <point x="446.35" y="248.325" type="curve" smooth="yes"/>
      <point x="446.35" y="151.35000000000002"/>
      <point x="385.1" y="84.275"/>
    </contour>
    <contour>
      <point x="702.8499999999999" y="-13.0" type="curve" smooth="yes"/>
      <point x="793.7" y="-13.0"/>
      <point x="869.55" y="22.325"/>
      <point x="914.125" y="77.625" type="curve"/>
      <point x="841.925" y="146.10000000000002" type="line"/>
      <point x="811.2" y="103.8"/>
      <point x="764.25" y="82.85"/>
      <point x="704.8" y="82.85" type="curve" smooth="yes"/>
      <point x="614.125" y="82.85"/>
      <point x="554.8" y="150.375"/>
      <point x="550.9" y="235.85" type="curve"/>
      <point x="550.425" y="252.125" type="line"/>
      <point x="549.9000000000001" y="359.625"/>
      <point x="608.35" y="419.5"/>
      <point x="697.0" y="419.5" type="curve" smooth="yes"/>
      <point x="790.6500000000001" y="419.5"/>
      <point x="836.675" y="354.375"/>
      <point x="833.15" y="254.5" type="curve"/>
      <point x="866.85" y="299.2" type="line"/>
      <point x="503.25" y="299.2" type="line"/>
      <point x="503.25" y="214.95" type="line"/>
      <point x="936.8" y="214.95" type="line"/>
      <point x="939.275" y="223.95"/>
      <point x="939.75" y="240.275"/>
      <point x="939.75" y="253.6" type="curve" smooth="yes"/>
      <point x="939.75" y="406.025"/>
      <point x="846.475" y="510.125"/>
      <point x="699.0" y="510.125" type="curve" smooth="yes"/>
      <point x="552.05" y="510.125"/>
      <point x="452.525" y="404.825"/>
      <point x="452.525" y="247.425" type="curve" smooth="yes"/>
      <point x="452.525" y="97.42500000000001"/>
      <point x="547.675" y="-13.0"/>
    </contour>
    <contour>
      <point x="475.0" y="412.1" type="line"/>
      <point x="475.0" y="85.5" type="line"/>
      <point x="517.9749999999999" y="85.5" type="line"/>
      <point x="517.9749999999999" y="412.1" type="line"/>
    </contour>
  </outline>
</glyph>
<glyph name="ringcomb" format="2">
  <unicode hex="030A"/>
  <anchor x="0.0" y="497.125" name="_top"/>
  <anchor x="0.0" y="726.65" name="top"/>
  <outline>
    <contour>
      <point x="0.0" y="553.65" type="curve" smooth="yes"/>
      <point x="59.0" y="553.65"/>
      <point x="107.525" y="600.6500000000001"/>
      <point x="107.525" y="658.65" type="curve" smooth="yes"/>
      <point x="107.525" y="716.65"/>
      <point x="59.0" y="763.65"/>
      <point x="0.0" y="763.65" type="curve" smooth="yes"/>
      <point x="-58.0" y="763.65"/>
      <point x="-107.525" y="716.65"/>
      <point x="-107.525" y="658.65" type="curve" smooth="yes"/>
      <point x="-107.525" y="600.6500000000001"/>
      <point x="-58.0" y="553.65"/>
    </contour>
    <contour>
      <point x="0.0" y="610.1500000000001" type="curve" smooth="yes"/>
      <point x="-26.825" y="610.1500000000001"/>
      <point x="-46.925" y="632.3499999999999"/>
      <point x="-46.925" y="658.65" type="curve" smooth="yes"/>
      <point x="-46.925" y="686.0"/>
      <point x="-26.825" y="706.1500000000001"/>
      <point x="0.0" y="706.1500000000001" type="curve" smooth="yes"/>
      <point x="26.825" y="706.1500000000001"/>
      <point x="46.925" y="686.0"/>
      <point x="46.925" y="658.65" type="curve" smooth="yes"/>
      <point x="46.925" y="632.3499999999999"/>
      <point x="26.825" y="610.1500000000001"/>
    </contour>
  </outline>
</glyph>
<glyph name="summation" format="2">
  <advance width="564.75"/>
  <unicode hex="2211"/>
  <outline>
    <contour>
      <point x="186.925" y="-102.3" type="curve" smooth="yes"/>
      <point x="384.35" y="253.0" type="line"/>
      <point x="191.2" y="582.3" type="line" smooth="yes"/>
      <point x="180.15" y="601.3"/>
      <point x="173.2" y="611.3"/>
      <point x="168.2" y="614.3" type="curve"/>
      <point x="170.2" y="618.3" type="line"/>
      <point x="175.2" y="616.3"/>
      <point x="189.2" y="617.3"/>
      <point x="213.2" y="617.3" type="curve" smooth="yes"/>
      <point x="527.5" y="617.3" type="line"/>
      <point x="527.5" y="700.0" type="line"/>
      <point x="20.0" y="700.0" type="line"/>
      <point x="20.0" y="685.0" type="line"/>
      <point x="290.0" y="234.625" type="line"/>
      <point x="290.0" y="260.625" type="line"/>
      <point x="20.0" y="-205.0" type="line"/>
      <point x="20.0" y="-220.0" type="line"/>
      <point x="527.5" y="-220.0" type="line"/>
      <point x="527.5" y="-137.3" type="line"/>
      <point x="208.925" y="-137.3" type="line" smooth="yes"/>
      <point x="194.925" y="-137.3"/>
      <point x="174.925" y="-135.3"/>
      <point x="166.925" y="-138.3" type="curve"/>
      <point x="163.925" y="-134.3" type="line"/>
      <point x="173.925" y="-127.3"/>
      <point x="181.39999999999998" y="-112.3"/>
    </contour>
  </outline>
</glyph>
<glyph name="caroncomb.alt" format="2">
  <anchor x="37.0" y="700.0" name="_topright"/>
  <outline>
    <contour>
      <point x="6.7" y="539.325" type="line"/>
      <point x="86.95" y="539.325" type="line"/>
      <point x="180.64999999999998" y="700.0" type="line"/>
      <point x="56.25" y="700.0" type="line"/>
    </contour>
  </outline>
</glyph>
<glyph name="f_f_i.ss11" format="2">
  <advance width="883.625"/>
  <anchor x="772.75" y="0.0" name="bottom_1"/>
  <anchor x="742.825" y="0.0" name="ogonek_1"/>
  <anchor x="772.75" y="497.125" name="top_1"/>
  <anchor x="365.67499999999995" y="0.0" name="caret_1"/>
  <anchor x="668.375" y="0.0" name="caret_2"/>
  <outline>
    <contour>
      <point x="115.1" y="0.0" type="line"/>
      <point x="221.22500000000002" y="0.0" type="line"/>
      <point x="221.22500000000002" y="516.975" type="line" smooth="yes"/>
      <point x="221.22500000000002" y="575.65"/>
      <point x="256.8" y="615.725"/>
      <point x="320.7" y="615.725" type="curve" smooth="yes"/>
      <point x="380.55" y="615.725"/>
      <point x="417.275" y="576.5999999999999"/>
      <point x="417.275" y="520.3" type="curve" smooth="yes"/>
      <point x="417.275" y="0.0" type="line"/>
      <point x="523.4" y="0.0" type="line"/>
      <point x="523.4" y="516.975" type="line" smooth="yes"/>
      <point x="523.4" y="575.65"/>
      <point x="558.975" y="615.725"/>
      <point x="622.875" y="615.725" type="curve" smooth="yes"/>
      <point x="682.725" y="615.725"/>
      <point x="718.875" y="576.125"/>
      <point x="718.875" y="519.35" type="curve"/>
      <point x="705.975" y="545.05" type="line"/>
      <point x="828.0999999999999" y="545.05" type="line"/>
      <point x="824.525" y="521.45" type="line"/>
      <point x="824.525" y="633.6"/>
      <point x="745.9749999999999" y="713.0"/>
      <point x="622.875" y="713.0" type="curve" smooth="yes"/>
      <point x="547.675" y="713.0"/>
      <point x="486.59999999999997" y="676.2"/>
      <point x="461.3" y="611.1500000000001" type="curve"/>
      <point x="523.4" y="635.0250000000001" type="line"/>
      <point x="417.65" y="635.0250000000001" type="line"/>
      <point x="479.75" y="610.15" type="line"/>
      <point x="453.925" y="676.725"/>
      <point x="393.325" y="713.0"/>
      <point x="320.7" y="713.0" type="curve" smooth="yes"/>
      <point x="198.275" y="713.0"/>
      <point x="115.1" y="633.6"/>
      <point x="115.1" y="522.4" type="curve" smooth="yes"/>
    </contour>
    <contour>
      <point x="18.425" y="402.32500000000005" type="line"/>
      <point x="656.0" y="402.32500000000005" type="line"/>
      <point x="656.0" y="497.125" type="line"/>
      <point x="18.425" y="497.125" type="line"/>
    </contour>
    <component base="idotless" xOffset="648.4"/>
  </outline>
</glyph>
<glyph name="nine.numr" format="2">
  <advance width="330.35"/>
  <outline>
    <contour>
      <point x="79.45" y="313.0" type="line"/>
      <point x="158.60000000000002" y="313.0" type="line"/>
      <point x="261.775" y="476.475" type="line" smooth="yes"/>
      <point x="281.775" y="507.04999999999995"/>
      <point x="295.975" y="540.15"/>
      <point x="295.975" y="577.2" type="curve" smooth="yes"/>
      <point x="295.975" y="656.1500000000001"/>
      <point x="237.6" y="706.0"/>
      <point x="160.75" y="706.0" type="curve" smooth="yes"/>
      <point x="85.15" y="706.0"/>
      <point x="25.15" y="657.25"/>
      <point x="25.15" y="576.675" type="curve" smooth="yes"/>
      <point x="25.15" y="483.425"/>
      <point x="102.80000000000001" y="439.725"/>
      <point x="170.55" y="459.075" type="curve"/>
    </contour>
    <contour>
      <point x="158.225" y="509.85" type="curve" smooth="yes"/>
      <point x="125.1" y="509.85"/>
      <point x="94.35" y="535.3"/>
      <point x="94.35" y="577.2" type="curve" smooth="yes"/>
      <point x="94.35" y="621.6500000000001"/>
      <point x="125.075" y="643.75"/>
      <point x="160.75" y="643.75" type="curve" smooth="yes"/>
      <point x="196.89999999999998" y="643.75"/>
      <point x="225.775" y="619.65"/>
      <point x="225.775" y="576.675" type="curve" smooth="yes"/>
      <point x="225.775" y="535.9"/>
      <point x="199.0" y="509.85"/>
    </contour>
  </outline>
</glyph>
<glyph name="one.tf" format="2">
  <advance width="596.0"/>
  <outline>
    <contour>
      <point x="265.225" y="0.0" type="line"/>
      <point x="375.82500000000005" y="0.0" type="line"/>
      <point x="375.82500000000005" y="713.0" type="line"/>
      <point x="58.47500000000001" y="583.75" type="line"/>
      <point x="95.975" y="490.375" type="line"/>
      <point x="262.275" y="559.0" type="line"/>
      <point x="265.225" y="555.05" type="line"/>
    </contour>
    <contour>
      <point x="113.375" y="-0.475" type="line"/>
      <point x="528.45" y="-0.475" type="line"/>
      <point x="528.45" y="97.17500000000001" type="line"/>
      <point x="113.375" y="97.17500000000001" type="line"/>
    </contour>
  </outline>
</glyph>
